<svg width="2108" height="279" viewBox="0 0 2108 279" fill="none" xmlns="http://www.w3.org/2000/svg">
<path fill-rule="evenodd" clip-rule="evenodd" d="M122.672 1.07083C122.212 2.26707 124.645 4.54516 126.384 4.54516C127.053 4.54516 128.381 5.38626 129.337 6.41428C130.292 7.4423 131.416 8.2834 131.836 8.2834C132.731 8.2834 138.877 12.4 141.603 14.8253C142.643 15.7509 143.774 16.5075 144.116 16.5075C144.661 16.5075 150.608 21.1407 153.474 23.7971C154.029 24.3115 154.711 24.7347 154.991 24.7384C155.271 24.7414 156.742 25.9189 158.26 27.3552C159.778 28.7907 161.176 29.9652 161.368 29.9652C163.276 29.9652 192.318 58.2488 198.985 66.6C201.447 69.684 203.714 72.3195 204.023 72.4563C204.333 72.5939 204.585 73.1823 204.585 73.7647C204.585 74.3479 204.85 74.8241 205.173 74.8241C205.497 74.8241 206.352 75.8215 207.073 77.0401C207.794 78.2588 208.803 79.6883 209.314 80.2177C210.601 81.5485 216.576 90.4014 216.576 90.9763C216.576 91.2343 218.052 93.6776 219.856 96.4057C221.66 99.1332 224.396 103.964 225.936 107.138C227.476 110.314 229.203 113.299 229.775 113.772C230.347 114.245 230.814 114.965 230.814 115.37C230.814 115.775 233.006 120.539 235.685 125.955C238.364 131.372 240.556 136.172 240.556 136.623C240.556 137.074 241.062 137.862 241.68 138.374C242.299 138.886 242.805 139.938 242.805 140.712C242.805 141.487 243.675 143.884 244.739 146.041C245.804 148.198 247.157 151.477 247.747 153.327C248.978 157.192 250.771 159.833 251.602 159.005C252.293 158.316 253.647 4.54666 252.985 1.91643L252.518 0.0592661H187.79C134.072 0.0592661 122.995 0.231223 122.672 1.07083ZM1174.68 1.30559C1172.62 1.94034 1170.26 2.75455 1169.43 3.11566C1168.61 3.47603 1165.41 4.11227 1162.31 4.52871C1153.45 5.7242 1149.73 6.47932 1148.68 7.30024C1148.14 7.71967 1145.17 8.69087 1142.08 9.45945C1138.99 10.2273 1136.29 11.0422 1136.09 11.2695C1135.11 12.3469 1131.52 14.2646 1130.48 14.2646C1129.84 14.2646 1127.98 15.1057 1126.34 16.1337C1124.71 17.1617 1123.08 18.0028 1122.71 18.0028C1122.35 18.0028 1120.91 19.0069 1119.51 20.2338C1118.12 21.4607 1116.77 22.47 1116.53 22.4768C1115.19 22.5127 1102.87 34.5834 1100.86 37.8252C1099.97 39.2592 1098.97 40.4323 1098.64 40.4323C1098.3 40.4323 1097.84 41.1956 1097.6 42.1294C1097.37 43.0625 1096.49 44.563 1095.65 45.4625C1094.81 46.3626 1094.12 47.5335 1094.11 48.0643C1094.1 48.5959 1093.31 50.4067 1092.35 52.0889C1091.38 53.7711 1090.35 56.1037 1090.06 57.2723C1089.77 58.4401 1088.84 60.7653 1088 62.4378C1087.15 64.1103 1086.18 68.0018 1085.84 71.0859C1085.5 74.1699 1084.53 79.553 1083.69 83.0483C1082.24 89.1109 1082.17 91.727 1082.15 139.908C1082.13 188.195 1082.2 190.705 1083.67 197.103C1084.51 200.783 1085.49 205.98 1085.83 208.653C1086.18 211.326 1087.13 215.04 1087.95 216.907C1088.77 218.774 1089.67 221.358 1089.95 222.65C1090.24 223.941 1090.95 225.399 1091.54 225.889C1092.14 226.379 1092.62 227.12 1092.62 227.536C1092.62 229.119 1098.11 239.034 1100.19 241.212C1101.38 242.465 1102.36 243.751 1102.36 244.069C1102.36 246.036 1121.8 262.484 1124.12 262.484C1124.61 262.484 1126 263.325 1127.23 264.353C1128.45 265.381 1129.89 266.222 1130.42 266.222C1130.95 266.222 1133.36 267.227 1135.79 268.455C1138.22 269.684 1141.24 270.693 1142.49 270.698C1143.75 270.704 1145.1 271 1145.49 271.356C1146.96 272.694 1153.89 274.618 1159.32 275.195C1162.41 275.524 1168.93 276.5 1173.82 277.363C1184.92 279.325 1209.18 279.574 1219.73 277.835C1223.39 277.231 1228.75 276.364 1231.63 275.909C1240.87 274.45 1247.72 272.756 1248.59 271.717C1249.05 271.163 1250.83 270.708 1252.53 270.708C1254.64 270.708 1256.56 270.086 1258.48 268.786C1260.04 267.729 1262.46 266.678 1263.85 266.452C1265.25 266.226 1267.04 265.439 1267.83 264.705C1268.62 263.97 1270.71 262.581 1272.47 261.618C1274.23 260.655 1276.24 259.531 1276.93 259.12C1279.19 257.775 1285.38 252.453 1288.14 249.485C1289.62 247.888 1291.76 245.605 1292.9 244.413C1294.03 243.221 1294.96 242.005 1294.96 241.711C1294.97 241.417 1296.14 239.715 1297.56 237.929C1298.98 236.143 1300.37 233.957 1300.64 233.069C1300.91 232.182 1301.54 230.952 1302.04 230.335C1302.54 229.718 1303.4 228.036 1303.94 226.597C1304.48 225.158 1305.35 222.971 1305.88 221.737C1307.75 217.331 1310.91 205.193 1311.63 199.681C1312.03 196.597 1312.5 171.701 1312.69 144.355C1312.96 102.747 1312.82 92.8851 1311.85 83.8968C1311.2 77.9897 1310.47 72.8272 1310.22 72.4242C1309.97 72.0204 1309.13 69.1158 1308.35 65.9682C1307.58 62.8206 1306.48 59.2356 1305.92 58.002C1303.2 52.0291 1298.99 43.8423 1298.26 43.0991C1297.81 42.6423 1296.54 40.851 1295.45 39.1194C1292.99 35.2309 1284.58 26.227 1283.41 26.227C1282.94 26.227 1282.05 25.5257 1281.45 24.6681C1280.84 23.8113 1279.5 22.6659 1278.47 22.1231C1277.44 21.5803 1275.79 20.4312 1274.8 19.5692C1273.81 18.7079 1272.52 18.0028 1271.94 18.0028C1271.35 18.0028 1269.77 17.1617 1268.42 16.1337C1267.07 15.1057 1265.59 14.2646 1265.14 14.2646C1264.68 14.2646 1262.74 13.4302 1260.82 12.4112C1258.9 11.3921 1255.25 10.0202 1252.72 9.363C1250.19 8.70582 1247.56 7.87146 1246.87 7.5081C1244.52 6.27074 1235.67 4.54516 1231.68 4.54516C1229.05 4.54516 1227.38 4.16311 1226.76 3.42368C1226.25 2.80687 1225.07 2.30221 1224.14 2.30221C1223.21 2.30221 1221.24 1.79755 1219.76 1.18074C1215.82 -0.461845 1180.1 -0.363161 1174.68 1.30559ZM356.525 5.80793C355.323 6.12194 355.214 7.62772 355.214 23.9855C355.214 39.9 355.353 41.9605 356.511 43.1149C357.888 44.4883 372.667 44.4636 472.508 42.925L503.995 42.4397L504.903 44.4262C505.402 45.5193 505.553 46.4135 505.239 46.4135C504.925 46.4135 504.033 47.5065 503.258 48.8433C502.483 50.1801 500.808 52.3259 499.537 53.6126C498.265 54.8985 496.718 56.5807 496.099 57.3508C495.48 58.1202 493.627 60.4319 491.98 62.4879C490.334 64.544 488.227 66.9095 487.298 67.7454C486.369 68.5805 485.609 69.6137 485.609 70.0407C485.609 70.4668 484.85 71.4941 483.923 72.3232C482.996 73.1516 481.562 74.6896 480.738 75.7407C478.719 78.3149 467.67 91.1101 465.563 93.315C464.636 94.2847 463.877 95.2514 463.877 95.4622C463.877 95.7844 460.112 100.008 456.57 103.658C456.055 104.189 455.633 104.804 455.633 105.025C455.633 105.245 454.706 106.38 453.572 107.546C452.439 108.711 450.668 110.79 449.638 112.165C448.608 113.54 446.838 115.614 445.704 116.775C444.57 117.936 443.643 119.233 443.643 119.658C443.643 120.083 443.351 120.431 442.995 120.431C442.638 120.431 440.193 123.038 437.561 126.225C431.259 133.857 429.961 135.394 428.842 136.551C428.327 137.084 427.906 137.723 427.906 137.972C427.906 138.221 426.894 139.411 425.657 140.617C424.421 141.823 423.409 142.978 423.409 143.183C423.409 143.388 422.482 144.54 421.348 145.742C420.214 146.944 418.107 149.363 416.665 151.117C413.004 155.57 410.577 158.436 408.599 160.645C407.666 161.686 405.305 164.388 403.353 166.647C401.401 168.907 399.129 171.514 398.304 172.438C395.839 175.203 390.031 182.074 386.314 186.624C385.077 188.138 383.391 190.122 382.567 191.033C381.743 191.945 379.888 194.115 378.445 195.856C377.003 197.596 374.727 200.203 373.387 201.647C372.047 203.092 370.946 204.502 370.939 204.781C370.933 205.061 369.896 206.466 368.636 207.906C365.768 211.183 359.82 217.943 357.837 220.182C357.013 221.113 355.326 223.139 354.09 224.685C352.853 226.23 351.342 228.02 350.731 228.662C350.12 229.303 349.024 231.156 348.296 232.78C347.142 235.351 346.971 238.173 346.971 254.671C346.971 265.781 347.264 273.791 347.68 274.048C348.867 274.78 567.463 274.489 568.352 273.754C568.917 273.287 569.052 267.547 568.792 255.044C568.483 240.15 568.222 236.872 567.293 236.233C566.544 235.718 558.172 235.603 542.188 235.888C528.999 236.123 492.832 236.538 461.816 236.809L405.424 237.302V235.113C405.424 232.173 408.665 227.453 415.915 219.834C417.358 218.319 419.381 215.964 420.412 214.601C422.315 212.083 424.284 209.777 427.404 206.41C428.961 204.73 436.668 195.658 439.795 191.824C440.468 190.999 442.706 188.319 444.767 185.869C446.828 183.419 449.188 180.602 450.013 179.608C450.837 178.614 451.853 177.425 452.271 176.966C452.69 176.507 454.195 174.617 455.617 172.766C457.039 170.916 458.973 168.661 459.915 167.755C460.857 166.85 461.628 165.905 461.628 165.655C461.628 165.405 463.024 163.717 464.729 161.902C466.434 160.087 468.71 157.53 469.787 156.221C470.864 154.911 473.01 152.477 474.555 150.813C476.101 149.148 477.366 147.519 477.366 147.192C477.366 146.865 477.872 146.598 478.49 146.598C479.108 146.598 479.614 146.213 479.614 145.741C479.614 144.868 482.54 141.094 488.607 134.143C490.461 132.017 492.822 129.213 493.852 127.912C494.883 126.61 496.653 124.61 497.787 123.468C498.921 122.325 499.848 121.209 499.848 120.988C499.848 120.542 502.892 116.885 505.924 113.685C507 112.551 508.996 110.072 510.361 108.177C511.725 106.281 513.122 104.73 513.464 104.73C513.806 104.73 514.086 104.403 514.086 104.002C514.086 103.602 515.52 101.807 517.271 100.013C519.022 98.2195 521.121 95.94 521.932 94.9471C522.745 93.9542 524.912 91.2911 526.749 89.0294C528.586 86.7678 530.368 84.7282 530.709 84.4972C531.05 84.2662 532.111 83.0199 533.067 81.7279C534.022 80.4352 536.693 77.26 539.003 74.6709C541.312 72.0825 546.67 65.7589 550.909 60.6188C555.149 55.4787 558.884 51.161 559.208 51.0242C559.533 50.8867 559.799 50.4194 559.799 49.985C559.799 49.5506 560.39 48.7648 561.111 48.24C562.284 47.3847 562.462 45.2285 562.797 27.732C563.003 16.9786 562.93 7.53052 562.634 6.73652C562.106 5.31897 560.233 5.2943 459.966 5.37953C403.795 5.42738 357.246 5.62027 356.525 5.80793ZM600.767 5.79148C600.492 6.06512 600.267 66.6246 600.267 140.368C600.267 267.56 600.334 274.447 601.578 274.454C602.299 274.459 645.7 274.455 698.024 274.446C772.841 274.433 793.284 274.232 793.748 273.504C794.646 272.093 794.497 239.462 793.585 237.762C792.826 236.348 791.236 236.316 721.648 236.316H650.488L648.609 234.686L646.729 233.056V195.435C646.729 158.81 646.769 157.773 648.228 156.318C649.701 154.848 650.726 154.823 709.251 154.823C762.363 154.823 768.9 154.696 769.952 153.648C770.954 152.648 771.129 149.917 771.129 135.331C771.129 125.902 771.045 118.111 770.942 118.016C770.838 117.922 743.39 117.67 709.945 117.455C654.411 117.1 649.013 116.957 647.745 115.812C646.419 114.615 646.372 112.99 646.729 80.8823C647.07 50.293 647.223 47.0692 648.408 45.689C649.702 44.1825 650.271 44.1705 721.261 44.1705C791.232 44.1705 792.826 44.1384 793.585 42.7246C794.056 41.8453 794.36 34.3995 794.36 23.7395C794.36 8.43592 794.209 6.14288 793.175 5.74662C791.55 5.12458 601.391 5.16869 600.767 5.79148ZM832.018 5.78774C830.715 6.31259 830.633 273.334 831.935 274.137C832.748 274.638 876.88 274.61 877.384 274.107C877.517 273.975 877.598 251.633 877.565 224.46C877.499 170.558 877.495 170.61 881.678 169.023C882.836 168.584 894.044 168.28 909.091 168.28C937.265 168.28 938.712 168.483 940.578 172.687C941.145 173.964 941.839 175.009 942.122 175.009C942.404 175.009 943.418 176.607 944.374 178.56C945.329 180.513 946.352 182.292 946.645 182.512C946.939 182.731 947.951 184.529 948.894 186.506C951.608 192.19 952.053 192.953 952.661 192.953C952.976 192.953 953.233 193.515 953.233 194.202C953.233 194.889 953.708 195.983 954.288 196.632C954.868 197.281 956.693 200.38 958.343 203.518C959.994 206.655 962.217 210.602 963.284 212.288C964.35 213.974 965.223 215.671 965.223 216.062C965.223 216.451 965.645 217.232 966.16 217.798C967.388 219.145 970.032 223.759 972.377 228.653C973.413 230.812 974.587 232.578 974.987 232.578C975.387 232.578 975.714 233.403 975.714 234.41C975.714 235.418 976.136 236.511 976.653 236.84C977.168 237.169 978.088 238.447 978.696 239.681C979.305 240.914 980.645 243.269 981.674 244.914C982.703 246.559 984.142 249.082 984.872 250.522C985.601 251.961 986.915 254.316 987.792 255.755C989.269 258.18 991.054 261.371 995.738 269.96C996.746 271.811 997.858 273.621 998.207 273.983C999.096 274.905 1052.96 274.69 1053.89 273.761C1054.61 273.038 1053.11 270.073 1050.89 267.851C1050.35 267.308 1049.9 266.382 1049.9 265.795C1049.9 265.208 1049.65 264.727 1049.34 264.726C1049.03 264.725 1047.81 262.959 1046.61 260.801C1045.42 258.643 1043.86 256.204 1043.14 255.381C1042.43 254.559 1040.58 251.531 1039.05 248.652C1037.52 245.774 1035.79 242.888 1035.22 242.238C1034.64 241.589 1034.17 240.809 1034.17 240.504C1034.17 240.2 1033.16 238.483 1031.92 236.69C1030.68 234.897 1029.67 233.252 1029.67 233.036C1029.67 232.819 1027.82 229.861 1025.55 226.463C1023.28 223.065 1021.43 219.97 1021.43 219.586C1021.43 219.202 1020.58 217.785 1019.55 216.437C1018.52 215.089 1017.68 213.773 1017.68 213.513C1017.68 213.253 1016.84 211.937 1015.81 210.589C1014.78 209.241 1013.93 207.87 1013.93 207.542C1013.93 206.92 1008.05 197.344 1007.26 196.691C1007.02 196.485 1006.23 195.139 1005.51 193.7C1003.78 190.244 1002 187.25 999.497 183.62C998.37 181.983 997.447 180.216 997.447 179.695C997.447 179.174 997.149 178.747 996.785 178.747C996.421 178.747 995.925 178.158 995.683 177.439C995.229 176.092 993.647 173.427 992.907 172.766C991.446 171.459 989.953 168.4 989.953 166.71C989.953 164.3 991.154 163.211 994.521 162.568C995.924 162.3 998.663 161.289 1000.61 160.321C1002.55 159.353 1004.95 158.561 1005.95 158.561C1006.94 158.561 1008.17 158.056 1008.69 157.439C1009.2 156.822 1010.09 156.318 1010.65 156.318C1011.22 156.318 1011.69 155.981 1011.69 155.57C1011.69 155.159 1012.15 154.823 1012.73 154.823C1014.08 154.823 1022.26 148.81 1026.31 144.836C1031.93 139.325 1037.91 130.275 1037.91 127.288C1037.91 126.496 1038.38 125.459 1038.96 124.984C1040.04 124.09 1040.53 122.239 1041.59 115.143C1041.94 112.851 1042.64 110.185 1043.16 109.217C1044.4 106.909 1045.06 80.0554 1044.06 72.955C1042.87 64.5783 1040.22 52.376 1039.13 50.2452C1038.58 49.1656 1036.65 45.3279 1034.85 41.716C1033.06 38.1049 1030.31 33.7872 1028.76 32.1214C1027.2 30.4549 1025.92 28.7839 1025.92 28.4071C1025.92 28.0303 1025.64 27.7223 1025.29 27.7223C1024.94 27.7223 1023.49 26.6292 1022.06 25.2924C1019.43 22.8162 1017.44 21.3799 1015.43 20.4828C1014.81 20.2069 1014.14 19.7882 1013.93 19.5527C1013.18 18.6922 1003.73 14.3087 1000.82 13.4676C999.171 12.9921 997.111 12.1592 996.243 11.6179C994.166 10.3215 987.77 8.95179 981.71 8.5047C979.031 8.30732 976.455 7.83032 975.985 7.44453C974.078 5.87746 952.838 5.33841 894.405 5.37355C860.607 5.39374 832.533 5.58064 832.018 5.78774ZM1356.6 5.78849L1354.91 6.14438V139.878C1354.91 232.772 1355.15 273.759 1355.7 274.097C1356.13 274.365 1382.86 274.549 1415.09 274.507C1471.72 274.433 1479.72 274.163 1488.3 272.038C1490.16 271.579 1494.03 270.984 1496.92 270.716C1499.81 270.449 1504.02 269.523 1506.29 268.659C1508.55 267.796 1511.56 266.855 1512.98 266.568C1514.39 266.28 1516.92 265.305 1518.6 264.4C1520.28 263.495 1523.08 262.303 1524.83 261.752C1526.59 261.2 1528.02 260.475 1528.02 260.14C1528.02 259.805 1529.45 258.869 1531.2 258.06C1532.96 257.251 1535.3 255.728 1536.42 254.677C1537.53 253.625 1538.63 252.764 1538.85 252.764C1539.79 252.764 1546.85 246.09 1552.3 240.054C1554.6 237.513 1560.24 228.571 1560.24 227.479C1560.24 226.994 1560.55 226.597 1560.93 226.597C1561.31 226.597 1561.84 225.602 1562.11 224.385C1562.38 223.168 1563.42 220.478 1564.42 218.407C1565.42 216.336 1566.24 213.987 1566.24 213.188C1566.24 212.388 1567.05 209.442 1568.03 206.642C1570.72 199.011 1571.11 190.563 1571.11 140.617C1571.1 94.666 1570.6 80.9384 1568.76 76.4151C1568.2 75.0282 1567.74 73.1135 1567.74 72.1603C1567.74 71.207 1567.44 70.2403 1567.07 70.013C1566.7 69.7857 1566.24 68.336 1566.04 66.7914C1565.69 63.9608 1564.01 59.0682 1563.16 58.3759C1562.9 58.1702 1562.45 57.2103 1562.14 56.2428C1561.84 55.2754 1560.78 53.2933 1559.79 51.8392C1558.8 50.385 1558 48.8837 1558 48.5024C1558 48.1211 1557.15 46.7065 1556.12 45.3585C1555.09 44.0105 1554.25 42.6573 1554.25 42.3508C1554.25 40.1654 1537.19 24.8834 1532.33 22.7093C1530.78 22.0185 1529.52 21.2095 1529.52 20.9112C1529.52 20.6136 1527.92 19.771 1525.96 19.0398C1524 18.3086 1521.22 16.9658 1519.78 16.0567C1518.33 15.1476 1515.34 14.0291 1513.11 13.5715C1510.89 13.1147 1508.03 12.2788 1506.74 11.7144C1503.39 10.2355 1498.48 9.10208 1492.05 8.31929C1488.96 7.94248 1484.91 7.2367 1483.06 6.75073C1480.63 6.11523 1462.64 5.80644 1418.98 5.65018C1385.6 5.53056 1357.52 5.59261 1356.6 5.78849ZM1611.66 6.47559C1610.98 8.23705 1611.13 272.426 1611.81 273.492C1612.51 274.6 1655.96 274.947 1657.06 273.854C1657.45 273.463 1657.72 248.831 1657.7 215.309C1657.68 183.481 1657.92 157.069 1658.23 156.617C1659.91 154.153 1661.83 154.075 1720.38 154.086C1765.9 154.094 1779.1 154.304 1780.57 155.043L1782.44 155.989L1782.57 214.915C1782.65 247.324 1782.87 274.004 1783.07 274.204C1783.45 274.578 1827.92 274.557 1828.29 274.183C1828.41 274.069 1828.53 213.809 1828.57 140.273C1828.63 30.0983 1828.46 6.45988 1827.65 5.94326C1826.3 5.09168 1785.29 5.11785 1783.69 5.97166C1782.51 6.60118 1782.43 10.5204 1782.57 60.147C1782.72 111.244 1782.66 113.721 1781.34 115.355L1779.95 117.066H1719.87C1661.09 117.066 1659.77 117.035 1658.72 115.602C1657.81 114.364 1657.65 105.872 1657.68 60.3325C1657.7 17.5012 1657.51 6.40306 1656.75 5.92083C1656.22 5.58812 1645.96 5.31076 1633.95 5.30403C1614.72 5.29431 1612.06 5.43411 1611.66 6.47559ZM1957.24 5.80793C1956.52 5.99634 1955.72 7.05053 1955.46 8.15106C1955.21 9.2516 1954.59 10.8254 1954.09 11.6478C1953.6 12.4702 1952.76 14.8253 1952.24 16.8814C1951.38 20.2376 1950.19 23.3493 1948.32 27.1511C1947.97 27.8651 1947.68 29.0426 1947.68 29.7678C1947.67 30.493 1947.16 32.0579 1946.54 33.2459C1945.92 34.4332 1944.87 37.2929 1944.21 39.6009C1943.55 41.9081 1942.77 44.1331 1942.48 44.5444C1942.19 44.9556 1940.3 50.3386 1938.28 56.5067C1936.26 62.6748 1934.37 67.8979 1934.07 68.114C1933.77 68.33 1933.15 70.1805 1932.69 72.226C1932.23 74.2716 1931.21 77.2914 1930.42 78.9362C1929.64 80.581 1928.45 83.855 1927.8 86.2123C1927.14 88.5689 1926.29 90.6915 1925.9 90.9292C1925.51 91.1662 1925.2 92.287 1925.2 93.4196C1925.2 94.5516 1924.36 97.2147 1923.33 99.3373C1922.31 101.46 1921.12 104.726 1920.7 106.595C1920.28 108.464 1919.27 111.244 1918.45 112.771C1917.63 114.298 1916.96 116.163 1916.96 116.914C1916.96 117.666 1916.17 120.025 1915.21 122.159C1914.26 124.292 1912.84 128.057 1912.08 130.524C1911.31 132.991 1910.44 135.346 1910.14 135.757C1909.84 136.169 1909.37 137.741 1909.08 139.25C1908.8 140.761 1907.76 143.594 1906.77 145.546C1905.78 147.498 1904.97 150.027 1904.97 151.167C1904.97 152.307 1904.66 153.431 1904.27 153.665C1903.89 153.9 1903.36 155.098 1903.09 156.326C1902.82 157.555 1902.29 158.561 1901.91 158.561C1901.53 158.561 1901.22 159.654 1901.21 160.991C1901.21 162.327 1900.4 164.825 1899.41 166.542C1898.43 168.258 1897.39 171.032 1897.11 172.703C1896.82 174.375 1895.97 177.031 1895.21 178.604C1894.45 180.178 1893.6 182.451 1893.33 183.657C1893.06 184.863 1892.2 187.266 1891.42 188.997C1890.64 190.727 1889.7 193.496 1889.32 195.149C1888.95 196.802 1887.93 199.359 1887.06 200.831C1886.19 202.301 1885.48 204.468 1885.48 205.644C1885.48 206.82 1884.66 209.424 1883.65 211.429C1882.64 213.435 1881.44 216.744 1880.98 218.781C1880.53 220.818 1879.5 223.597 1878.7 224.957C1877.89 226.317 1877.24 228.146 1877.24 229.02C1877.24 229.895 1876.58 231.978 1875.78 233.65C1874.97 235.322 1873.88 238.372 1873.35 240.428C1872.82 242.484 1872.17 244.335 1871.91 244.54C1871.64 244.746 1870.84 246.933 1870.12 249.4C1869.4 251.867 1868.01 255.631 1867.03 257.764C1866.05 259.897 1865.25 262.48 1865.25 263.505C1865.25 264.53 1864.81 265.812 1864.28 266.356C1862.71 267.961 1861.33 271.982 1861.82 273.533C1862.26 274.907 1863.29 274.979 1884.69 275.112C1897.01 275.19 1907.97 275.035 1909.03 274.767C1910.31 274.447 1911.14 273.605 1911.45 272.307C1911.71 271.222 1912.52 269.141 1913.25 267.682C1913.98 266.224 1914.82 263.701 1915.11 262.075C1915.6 259.3 1916.95 255.558 1918.52 252.588C1918.9 251.874 1919.2 250.585 1919.2 249.725C1919.2 248.864 1920.02 246.084 1921.01 243.547C1922.01 241.009 1923.04 237.854 1923.32 236.535C1923.59 235.216 1924.47 232.769 1925.28 231.098C1926.09 229.425 1927.03 226.555 1927.38 224.718C1927.72 222.882 1928.32 220.955 1928.71 220.436C1929.11 219.918 1929.89 217.98 1930.45 216.13C1931.01 214.279 1931.78 212.345 1932.17 211.831C1932.72 211.1 1943.9 210.896 1983.63 210.896C2034.21 210.896 2034.38 210.901 2035.8 212.464C2036.58 213.326 2037.8 215.934 2038.49 218.258C2040.4 224.584 2042.83 231.788 2044.33 235.569C2045.07 237.419 2046.07 240.601 2046.55 242.64C2047.03 244.679 2047.89 247.37 2048.44 248.621C2049 249.872 2049.64 251.938 2049.86 253.213C2050.08 254.488 2051.13 257.41 2052.18 259.707C2053.23 262.004 2054.1 264.494 2054.11 265.24C2054.13 267.733 2056.16 272.491 2057.76 273.782C2059.19 274.939 2061.53 275.029 2083.02 274.753C2096.04 274.585 2107 274.259 2107.37 274.029C2108.46 273.36 2108.18 271.96 2106.18 268.031C2105.15 266.008 2104.1 263.175 2103.84 261.736C2103.57 260.297 2102.7 257.774 2101.9 256.129C2101.1 254.484 2099.95 251.327 2099.36 249.114C2098.76 246.901 2097.82 244.209 2097.27 243.133C2096.71 242.057 2095.63 239.157 2094.87 236.69C2094.11 234.223 2093.06 231.363 2092.53 230.335C2092.01 229.307 2091.57 227.842 2091.57 227.079C2091.57 226.316 2090.72 224.018 2089.69 221.971C2088.66 219.925 2087.82 217.262 2087.82 216.053C2087.82 214.845 2087.03 212.602 2086.06 211.068C2085.1 209.535 2084.08 206.835 2083.8 205.069C2083.29 201.86 2083.11 201.366 2080.81 196.95C2080.13 195.652 2079.58 194.096 2079.58 193.491C2079.58 192.886 2078.73 190.489 2077.7 188.165C2076.67 185.84 2075.83 183.338 2075.83 182.604C2075.83 181.87 2074.99 179.526 2073.96 177.396C2072.92 175.265 2072.08 172.836 2072.08 171.997C2072.08 171.159 2071.28 168.887 2070.31 166.947C2069.34 165.008 2068.3 162.093 2068 160.471C2067.7 158.849 2066.65 155.916 2065.65 153.954C2064.65 151.992 2063.84 149.609 2063.84 148.659C2063.84 147.709 2063.39 146.267 2062.85 145.457C2062.31 144.646 2060.43 139.608 2058.67 134.262C2056.91 128.916 2054.79 123.05 2053.96 121.225C2053.14 119.4 2052.27 116.709 2052.05 115.243C2051.83 113.779 2051.14 111.571 2050.51 110.337C2049.89 109.104 2049.1 107.511 2048.74 106.797C2048.39 106.083 2048.1 104.905 2048.1 104.18C2048.09 103.455 2047.56 101.852 2046.92 100.618C2046.27 99.3844 2045.28 96.6928 2044.72 94.6368C2044.15 92.5808 2042.84 88.8799 2041.79 86.4127C2040.75 83.9454 2039.89 81.4094 2039.88 80.7761C2039.87 80.1436 2039.18 78.3067 2038.36 76.6932C2037.53 75.0798 2036.86 73.0963 2036.86 72.2851C2036.86 71.4739 2036.21 69.4426 2035.42 67.7708C2033.51 63.7238 2031.61 57.9265 2031.61 56.1067C2031.61 55.2985 2031.31 54.6376 2030.93 54.6376C2030.56 54.6376 2029.7 52.7034 2029.02 50.3386C2028.33 47.9738 2027.29 45.0872 2026.7 43.9231C2026.1 42.759 2025.62 41.1403 2025.62 40.3254C2025.62 39.5112 2024.83 37.0993 2023.86 34.9655C2022.9 32.8324 2021.51 29.0785 2020.78 26.6247C2020.04 24.1702 2019.02 21.4787 2018.49 20.6435C2017.97 19.8077 2017.31 17.7845 2017.02 16.1472C2016.23 11.6703 2013.46 6.19447 2011.76 5.72495C2009.97 5.23599 1959.14 5.31299 1957.24 5.80793ZM47.5028 39.7228C44.9833 40.051 41.617 41.017 40.0223 41.87C38.4276 42.7223 35.9463 43.6404 34.509 43.9096C33.0716 44.178 30.5701 45.3563 28.9499 46.5271C27.3297 47.6987 25.5747 48.6564 25.0501 48.6564C24.5248 48.6564 23.0934 49.4975 21.8689 50.5255C20.6444 51.5536 19.3951 52.3947 19.0924 52.3947C17.7809 52.3947 7.46249 62.1163 5.03744 65.6363C4.12768 66.9566 2.62214 68.4429 1.69213 68.9401L0 69.8433V174.388V278.932H116.517H233.034L233.537 276.929C234.363 273.649 233.189 244.952 232.006 239.477C231.408 236.71 230.56 231.585 230.122 228.087C229.683 224.589 228.816 219.878 228.193 217.62C227.57 215.361 226.499 210.821 225.812 207.532C225.125 204.242 224.362 201.382 224.116 201.177C223.871 200.971 222.944 198.448 222.057 195.569C219.755 188.098 216.889 180.236 215.516 177.626C214.868 176.392 214.335 174.981 214.332 174.491C214.33 174 213.674 172.486 212.875 171.126C212.076 169.767 210.858 166.972 210.168 164.916C209.477 162.86 208.444 160.908 207.873 160.579C207.301 160.25 206.833 159.485 206.833 158.877C206.833 157.877 201.773 147.492 200.85 146.598C199.959 145.736 198.59 142.798 198.59 141.749C198.59 141.126 198.292 140.617 197.928 140.617C197.564 140.617 197.068 140.028 196.826 139.309C196.583 138.59 195.959 137.328 195.438 136.505C190.745 129.1 186.6 121.999 186.6 121.365C186.6 120.939 186.147 120.417 185.594 120.206C185.04 119.993 184.013 118.612 183.311 117.135C182.608 115.658 181.794 114.449 181.502 114.449C181.209 114.449 180.545 113.49 180.025 112.318C179.505 111.145 178.083 109.211 176.865 108.019C175.647 106.826 174.642 105.603 174.63 105.299C174.618 104.995 174.123 104.154 173.529 103.43C172.935 102.706 169.362 98.2928 165.59 93.6237C161.819 88.9539 157.123 83.5709 155.155 81.6614C145.692 72.4757 139.096 66.5125 137.094 65.3327C135.883 64.6187 134.891 63.7657 134.891 63.4359C134.891 63.107 133.645 62.2539 132.122 61.5414C130.6 60.8281 128.539 59.4988 127.543 58.5867C126.547 57.6746 125.011 56.7011 124.129 56.423C123.247 56.1449 121.483 55.1251 120.208 54.1561C118.932 53.1872 117.298 52.3947 116.576 52.3947C115.854 52.3947 114.275 51.6919 113.066 50.8328C111.856 49.9745 109.628 48.9301 108.112 48.5129C106.596 48.0949 104.167 46.9473 102.714 45.9619C101.261 44.9765 99.4427 44.1705 98.6746 44.1705C96.8056 44.1705 88.9017 41.8708 88.4288 41.1889C87.0964 39.2682 58.7879 38.2536 47.5028 39.7228ZM1214.22 40.9938C1214.73 41.3953 1217.62 41.9433 1220.65 42.2117C1224.1 42.5167 1227.63 43.3937 1230.09 44.5563C1232.26 45.5776 1234.93 46.4135 1236.04 46.4135C1237.15 46.4135 1238.23 46.8755 1238.45 47.4407C1238.66 48.006 1240.08 49.099 1241.59 49.8706C1244.32 51.2665 1254.48 60.4782 1254.49 61.5601C1254.49 61.8719 1255.5 63.5204 1256.74 65.2236C1257.97 66.926 1258.99 68.7741 1258.99 69.3289C1258.99 69.8844 1259.27 70.3382 1259.61 70.3382C1259.96 70.3382 1260.85 72.2724 1261.58 74.6372C1262.32 77.002 1263.27 79.7773 1263.7 80.8053C1265.62 85.4714 1265.95 92.8836 1266.25 137.253C1266.56 185.056 1266.2 194.355 1263.86 197.921C1263.24 198.86 1262.73 200.679 1262.73 201.962C1262.73 204.371 1258.84 212.959 1256.72 215.233C1256.06 215.941 1255.16 217.147 1254.73 217.913C1253.63 219.88 1244.62 228.84 1243.74 228.84C1243.34 228.84 1241.97 229.626 1240.7 230.588C1239.42 231.549 1236.69 232.959 1234.63 233.721C1232.57 234.483 1230.17 235.558 1229.29 236.11C1228.42 236.662 1224.2 237.596 1219.92 238.186C1215.65 238.776 1210.13 239.568 1207.65 239.946C1202.48 240.738 1188.12 240.383 1184.13 239.367C1182.64 238.988 1178.89 238.454 1175.8 238.182C1172.71 237.909 1168.83 237.077 1167.19 236.334C1165.54 235.59 1162.5 234.375 1160.44 233.631C1158.38 232.889 1156.53 232.048 1156.32 231.764C1156.11 231.479 1154.51 230.504 1152.76 229.596C1149 227.642 1138.33 216.5 1138.33 214.519C1138.33 213.76 1138.06 213.139 1137.73 213.139C1137.17 213.139 1136.58 211.902 1133.4 204.167C1132.81 202.728 1131.59 197.681 1130.68 192.953C1129.12 184.838 1129.02 181.959 1128.78 141.739C1128.62 116.027 1128.81 98.085 1129.24 96.5059C1129.64 95.0667 1130.5 90.2361 1131.15 85.7712C1131.81 81.3062 1132.8 76.7643 1133.36 75.6779C1133.91 74.5916 1135.44 71.5158 1136.75 68.8429C1138.07 66.1701 1139.55 63.3156 1140.05 62.4984C1141.46 60.1949 1149.11 52.6945 1151.13 51.6336C1152.13 51.1109 1154.18 49.7226 1155.68 48.548C1157.18 47.3742 1159.09 46.4135 1159.93 46.4135C1160.76 46.4135 1163.07 45.6075 1165.06 44.6229C1168.42 42.9608 1174.23 41.8035 1186.29 40.3889C1192.77 39.6301 1213.04 40.0689 1214.22 40.9938ZM1475.04 45.2202C1477.43 45.8767 1481.22 46.4135 1483.47 46.4135C1485.71 46.4135 1487.55 46.7499 1487.55 47.1611C1487.55 47.5723 1487.94 47.9088 1488.41 47.9088C1489.2 47.9088 1491.21 48.7648 1498.04 52.0074C1502.79 54.2585 1503.91 55.0615 1508.54 59.5452C1514.19 65.0112 1519.47 73.4978 1521.02 79.5866C1521.66 82.1077 1522.51 84.5622 1522.89 85.0415C1523.28 85.5215 1523.92 88.8859 1524.3 92.518C1525.24 101.476 1525.19 181.469 1524.24 188.056C1523.4 193.837 1520.04 204.644 1518.52 206.469C1517.97 207.118 1517.53 208.097 1517.53 208.644C1517.53 211.057 1506.22 223.8 1503.24 224.743C1502.44 224.995 1501.79 225.516 1501.79 225.899C1501.79 226.283 1501.29 226.597 1500.67 226.597C1500.05 226.597 1499.54 226.894 1499.54 227.258C1499.54 227.623 1497.77 228.49 1495.61 229.187C1493.44 229.883 1490.88 230.965 1489.9 231.59C1488.92 232.216 1483.86 233.434 1478.66 234.297C1470.28 235.684 1465.44 235.894 1436.58 236.113L1403.97 236.36L1402.67 234.167C1401.46 232.117 1401.37 225.878 1401.37 139.334V46.6954L1402.96 44.9974L1404.54 43.3003L1437.62 43.6629C1464.76 43.9612 1471.47 44.2401 1475.04 45.2202ZM961.289 45.4789C961.496 46.0995 963.248 46.4135 966.505 46.4135C970.507 46.4135 972.322 46.8576 976.372 48.8276C979.102 50.1555 981.719 51.6081 982.189 52.056C982.659 52.5046 984.008 53.6941 985.187 54.6997C988.471 57.5026 990.959 61.2296 993.374 66.9641C995.565 72.1692 995.573 72.2455 995.573 87.5244C995.573 102.71 995.553 102.904 993.513 107.18C992.379 109.556 991.452 111.917 991.452 112.428C991.452 113.773 984.098 121.367 980.567 123.669C978.908 124.75 976.378 125.856 974.946 126.126C973.514 126.398 971.499 127.053 970.469 127.583C965.97 129.899 961.103 130.15 920.694 130.15H879.826L878.665 128.383C877.648 126.833 877.53 121.738 877.711 86.951L877.918 47.286L879.747 45.7032C881.569 44.1287 881.772 44.1219 921.277 44.3328C952.219 44.4973 961.046 44.7507 961.289 45.4789ZM1986.5 58.5254C1987 59.0188 1987.4 60.1874 1987.4 61.122C1987.4 62.0565 1988.21 64.5963 1989.21 66.7667C1990.2 68.9364 1991.22 71.9218 1991.47 73.4006C1991.72 74.8794 1992.6 77.4902 1993.43 79.2016C1994.26 80.913 1995.26 84.0434 1995.67 86.1577C1996.07 88.2728 1996.69 90.3722 1997.05 90.8245C1997.41 91.2761 1998.12 93.4966 1998.63 95.7583C1999.15 98.0199 2000.19 101.064 2000.94 102.523C2001.7 103.982 2002.68 106.842 2003.13 108.878C2003.57 110.915 2004.55 113.926 2005.31 115.571C2006.06 117.216 2006.9 120.076 2007.19 121.926C2007.48 123.776 2008.14 125.963 2008.66 126.786C2009.19 127.608 2010.04 129.963 2010.55 132.019C2011.06 134.075 2011.94 136.767 2012.49 138C2013.79 140.86 2016.32 148.478 2018.21 155.196C2019.02 158.075 2020.19 161.349 2020.81 162.471C2021.43 163.594 2022.14 166.192 2022.38 168.245C2022.8 171.758 2022.71 172.021 2020.87 172.719C2018.77 173.518 1950.81 173.812 1947.86 173.034C1946.93 172.789 1945.97 171.82 1945.74 170.883C1945.29 169.109 1947.56 160.804 1948.49 160.804C1948.78 160.804 1949.59 158.364 1950.29 155.383C1950.98 152.402 1952 148.953 1952.56 147.72C1953.64 145.296 1955.79 138.844 1958.29 130.524C1959.15 127.645 1960.32 124.626 1960.89 123.815C1961.46 123.005 1961.92 121.301 1961.92 120.031C1961.92 118.76 1962.74 116.029 1963.74 113.963C1964.74 111.896 1965.79 108.889 1966.09 107.281C1966.38 105.672 1967.24 103.01 1968 101.366C1968.75 99.7208 1969.88 96.5246 1970.51 94.263C1972.37 87.5431 1975.44 78.3231 1976.48 76.3194C1977.02 75.2914 1977.64 73.2301 1977.87 71.7386C1978.1 70.247 1978.99 67.5764 1979.84 65.8037C1980.7 64.0311 1981.4 62.1171 1981.4 61.5504C1981.4 58.3609 1984.5 56.5254 1986.5 58.5254Z" fill="#0C7DB7"/>
</svg>
